<mxfile host="app.diagrams.net" modified="2022-04-23T10:58:33.355Z" agent="5.0 (Windows NT 10.0; Win64; x64) AppleWebKit/537.36 (KHTML, like Gecko) Chrome/84.0.4147.105 Safari/537.36" etag="dP_zxyTgQv0z0vzrRF67" version="17.4.5" type="github">
  <diagram id="6KBp5lXoEJVOTG9oSJPm" name="Page-1">
    <mxGraphModel dx="1051" dy="520" grid="1" gridSize="10" guides="1" tooltips="1" connect="1" arrows="1" fold="1" page="1" pageScale="1" pageWidth="827" pageHeight="1169" math="0" shadow="0">
      <root>
        <mxCell id="0" />
        <mxCell id="1" parent="0" />
        <mxCell id="iyFeWZROGvx0qCSzoOuR-6" value="&lt;font color=&quot;#cc0000&quot; style=&quot;font-size: 12px&quot;&gt;&lt;b&gt;Forward primer&lt;/b&gt;&lt;/font&gt;" style="text;html=1;align=center;verticalAlign=middle;resizable=0;points=[];autosize=1;strokeColor=none;fillColor=none;" vertex="1" parent="1">
          <mxGeometry x="215" y="252" width="100" height="20" as="geometry" />
        </mxCell>
        <mxCell id="iyFeWZROGvx0qCSzoOuR-11" value="" style="endArrow=none;html=1;rounded=0;fontSize=6;fontColor=#F19C99;" edge="1" parent="1">
          <mxGeometry width="50" height="50" relative="1" as="geometry">
            <mxPoint x="320" y="226" as="sourcePoint" />
            <mxPoint x="400" y="226" as="targetPoint" />
          </mxGeometry>
        </mxCell>
        <mxCell id="iyFeWZROGvx0qCSzoOuR-13" value="" style="endArrow=none;html=1;rounded=1;fontSize=6;fontColor=#F19C99;endSize=5;jumpSize=4;fillColor=#f8cecc;strokeColor=#b85450;exitX=0.048;exitY=1.142;exitDx=0;exitDy=0;exitPerimeter=0;" edge="1" parent="1" source="iyFeWZROGvx0qCSzoOuR-20">
          <mxGeometry width="50" height="50" relative="1" as="geometry">
            <mxPoint x="260" y="210" as="sourcePoint" />
            <mxPoint x="320.00000000000006" y="226" as="targetPoint" />
          </mxGeometry>
        </mxCell>
        <mxCell id="iyFeWZROGvx0qCSzoOuR-16" value="&lt;font color=&quot;#000000&quot; style=&quot;font-size: 12px&quot;&gt;ACGTTGACC&lt;/font&gt;" style="text;html=1;align=center;verticalAlign=middle;resizable=0;points=[];autosize=1;strokeColor=none;fillColor=none;fontSize=6;fontColor=#F19C99;" vertex="1" parent="1">
          <mxGeometry x="315" y="214" width="90" height="10" as="geometry" />
        </mxCell>
        <mxCell id="iyFeWZROGvx0qCSzoOuR-17" value="&lt;font color=&quot;#4d9900&quot; style=&quot;font-size: 12px&quot;&gt;&lt;b&gt;Reverse&amp;nbsp; primer&lt;/b&gt;&lt;/font&gt;" style="text;html=1;align=center;verticalAlign=middle;resizable=0;points=[];autosize=1;strokeColor=none;fillColor=none;" vertex="1" parent="1">
          <mxGeometry x="405" y="252" width="110" height="20" as="geometry" />
        </mxCell>
        <mxCell id="iyFeWZROGvx0qCSzoOuR-18" value="&lt;font style=&quot;font-size: 12px&quot;&gt;CGGACT&lt;/font&gt;" style="text;html=1;align=center;verticalAlign=middle;resizable=0;points=[];autosize=1;strokeColor=none;fillColor=none;fontSize=4;fontColor=#4D9900;rotation=15;" vertex="1" parent="1">
          <mxGeometry x="393" y="221" width="70" height="10" as="geometry" />
        </mxCell>
        <mxCell id="iyFeWZROGvx0qCSzoOuR-20" value="&lt;font style=&quot;font-size: 12px&quot; color=&quot;#990000&quot;&gt;GTTCAC&lt;/font&gt;" style="text;html=1;align=center;verticalAlign=middle;resizable=0;points=[];autosize=1;strokeColor=none;fillColor=none;fontSize=4;fontColor=#4D9900;rotation=15;" vertex="1" parent="1">
          <mxGeometry x="264" y="207" width="60" height="10" as="geometry" />
        </mxCell>
        <mxCell id="iyFeWZROGvx0qCSzoOuR-21" value="" style="endArrow=none;html=1;rounded=1;fontSize=6;fontColor=#F19C99;endSize=5;jumpSize=4;fillColor=#d5e8d4;strokeColor=#82b366;exitX=0.048;exitY=1.142;exitDx=0;exitDy=0;exitPerimeter=0;" edge="1" parent="1">
          <mxGeometry width="50" height="50" relative="1" as="geometry">
            <mxPoint x="400.0024733214823" y="226.00207130159544" as="sourcePoint" />
            <mxPoint x="453.86" y="240.82" as="targetPoint" />
          </mxGeometry>
        </mxCell>
        <mxCell id="iyFeWZROGvx0qCSzoOuR-28" value="" style="endArrow=classic;html=1;strokeWidth=2;rounded=1;fontSize=12;fontColor=#990000;curved=1;jumpSize=4;endFill=1;entryX=0.55;entryY=0;entryDx=0;entryDy=0;entryPerimeter=0;fillColor=#f8cecc;strokeColor=#b85450;" edge="1" parent="1" target="iyFeWZROGvx0qCSzoOuR-6">
          <mxGeometry width="50" height="50" relative="1" as="geometry">
            <mxPoint x="290" y="220" as="sourcePoint" />
            <mxPoint x="460" y="170" as="targetPoint" />
          </mxGeometry>
        </mxCell>
        <mxCell id="iyFeWZROGvx0qCSzoOuR-29" value="" style="endArrow=classic;html=1;strokeWidth=2;rounded=1;fontSize=12;fontColor=#990000;curved=1;jumpSize=4;endFill=1;fillColor=#d5e8d4;strokeColor=#82b366;" edge="1" parent="1">
          <mxGeometry width="50" height="50" relative="1" as="geometry">
            <mxPoint x="420" y="232" as="sourcePoint" />
            <mxPoint x="447.5" y="254" as="targetPoint" />
          </mxGeometry>
        </mxCell>
      </root>
    </mxGraphModel>
  </diagram>
</mxfile>
